<svg id="visual" viewBox="0 0 1920 864" width="1920" height="864" xmlns="http://www.w3.org/2000/svg" xmlns:xlink="http://www.w3.org/1999/xlink" version="1.1"><rect x="0" y="0" width="1920" height="864" fill="#001220"></rect><defs><linearGradient id="grad1_0" x1="55%" y1="0%" x2="100%" y2="100%"><stop offset="5.555555555555554%" stop-color="#7cfc00" stop-opacity="1"></stop><stop offset="94.44444444444446%" stop-color="#7cfc00" stop-opacity="1"></stop></linearGradient></defs><defs><linearGradient id="grad1_1" x1="55%" y1="0%" x2="100%" y2="100%"><stop offset="5.555555555555554%" stop-color="#7cfc00" stop-opacity="1"></stop><stop offset="94.44444444444446%" stop-color="#00d860" stop-opacity="1"></stop></linearGradient></defs><defs><linearGradient id="grad1_2" x1="55%" y1="0%" x2="100%" y2="100%"><stop offset="5.555555555555554%" stop-color="#00b081" stop-opacity="1"></stop><stop offset="94.44444444444446%" stop-color="#00d860" stop-opacity="1"></stop></linearGradient></defs><defs><linearGradient id="grad1_3" x1="55%" y1="0%" x2="100%" y2="100%"><stop offset="5.555555555555554%" stop-color="#00b081" stop-opacity="1"></stop><stop offset="94.44444444444446%" stop-color="#008689" stop-opacity="1"></stop></linearGradient></defs><defs><linearGradient id="grad1_4" x1="55%" y1="0%" x2="100%" y2="100%"><stop offset="5.555555555555554%" stop-color="#005c78" stop-opacity="1"></stop><stop offset="94.44444444444446%" stop-color="#008689" stop-opacity="1"></stop></linearGradient></defs><defs><linearGradient id="grad1_5" x1="55%" y1="0%" x2="100%" y2="100%"><stop offset="5.555555555555554%" stop-color="#005c78" stop-opacity="1"></stop><stop offset="94.44444444444446%" stop-color="#003551" stop-opacity="1"></stop></linearGradient></defs><defs><linearGradient id="grad1_6" x1="55%" y1="0%" x2="100%" y2="100%"><stop offset="5.555555555555554%" stop-color="#001220" stop-opacity="1"></stop><stop offset="94.44444444444446%" stop-color="#003551" stop-opacity="1"></stop></linearGradient></defs><defs><linearGradient id="grad2_0" x1="0%" y1="0%" x2="45%" y2="100%"><stop offset="5.555555555555554%" stop-color="#7cfc00" stop-opacity="1"></stop><stop offset="94.44444444444446%" stop-color="#7cfc00" stop-opacity="1"></stop></linearGradient></defs><defs><linearGradient id="grad2_1" x1="0%" y1="0%" x2="45%" y2="100%"><stop offset="5.555555555555554%" stop-color="#00d860" stop-opacity="1"></stop><stop offset="94.44444444444446%" stop-color="#7cfc00" stop-opacity="1"></stop></linearGradient></defs><defs><linearGradient id="grad2_2" x1="0%" y1="0%" x2="45%" y2="100%"><stop offset="5.555555555555554%" stop-color="#00d860" stop-opacity="1"></stop><stop offset="94.44444444444446%" stop-color="#00b081" stop-opacity="1"></stop></linearGradient></defs><defs><linearGradient id="grad2_3" x1="0%" y1="0%" x2="45%" y2="100%"><stop offset="5.555555555555554%" stop-color="#008689" stop-opacity="1"></stop><stop offset="94.44444444444446%" stop-color="#00b081" stop-opacity="1"></stop></linearGradient></defs><defs><linearGradient id="grad2_4" x1="0%" y1="0%" x2="45%" y2="100%"><stop offset="5.555555555555554%" stop-color="#008689" stop-opacity="1"></stop><stop offset="94.44444444444446%" stop-color="#005c78" stop-opacity="1"></stop></linearGradient></defs><defs><linearGradient id="grad2_5" x1="0%" y1="0%" x2="45%" y2="100%"><stop offset="5.555555555555554%" stop-color="#003551" stop-opacity="1"></stop><stop offset="94.44444444444446%" stop-color="#005c78" stop-opacity="1"></stop></linearGradient></defs><defs><linearGradient id="grad2_6" x1="0%" y1="0%" x2="45%" y2="100%"><stop offset="5.555555555555554%" stop-color="#003551" stop-opacity="1"></stop><stop offset="94.44444444444446%" stop-color="#001220" stop-opacity="1"></stop></linearGradient></defs><g transform="translate(1920, 0)"><path d="M0 864C-171 852.9 -341.9 841.7 -432 748.2C-522.1 654.8 -531.2 478.9 -589.8 340.5C-648.3 202.1 -756.1 101 -864 0L0 0Z" fill="#002339"></path><path d="M0 740.6C-146.5 731 -293.1 721.5 -370.3 641.4C-447.5 561.2 -455.4 410.5 -505.5 291.9C-555.7 173.2 -648.1 86.6 -740.6 0L0 0Z" fill="#004866"></path><path d="M0 617.1C-122.1 609.2 -244.2 601.2 -308.6 534.5C-372.9 467.7 -379.5 342.1 -421.3 243.2C-463.1 144.3 -540.1 72.2 -617.1 0L0 0Z" fill="#007184"></path><path d="M0 493.7C-97.7 487.4 -195.4 481 -246.9 427.6C-298.3 374.2 -303.6 273.7 -337 194.6C-370.4 115.5 -432.1 57.7 -493.7 0L0 0Z" fill="#009b89"></path><path d="M0 370.3C-73.3 365.5 -146.5 360.7 -185.1 320.7C-223.7 280.6 -227.7 205.3 -252.8 145.9C-277.8 86.6 -324.1 43.3 -370.3 0L0 0Z" fill="#00c474"></path><path d="M0 246.9C-48.8 243.7 -97.7 240.5 -123.4 213.8C-149.2 187.1 -151.8 136.8 -168.5 97.3C-185.2 57.7 -216 28.9 -246.9 0L0 0Z" fill="#1deb43"></path><path d="M0 123.4C-24.4 121.8 -48.8 120.2 -61.7 106.9C-74.6 93.5 -75.9 68.4 -84.3 48.6C-92.6 28.9 -108 14.4 -123.4 0L0 0Z" fill="#7cfc00"></path></g><g transform="translate(0, 864)"><path d="M0 -864C150.9 -841.3 301.7 -818.5 432 -748.2C562.3 -678 671.9 -560.1 740.5 -427.5C809 -294.9 836.5 -147.4 864 0L0 0Z" fill="#002339"></path><path d="M0 -740.6C129.3 -721.1 258.6 -701.6 370.3 -641.4C481.9 -581.1 575.9 -480.1 634.7 -366.4C693.4 -252.7 717 -126.4 740.6 0L0 0Z" fill="#004866"></path><path d="M0 -617.1C107.8 -600.9 215.5 -584.7 308.6 -534.5C401.6 -484.3 479.9 -400.1 528.9 -305.4C577.9 -210.6 597.5 -105.3 617.1 0L0 0Z" fill="#007184"></path><path d="M0 -493.7C86.2 -480.7 172.4 -467.7 246.9 -427.6C321.3 -387.4 383.9 -320.1 423.1 -244.3C462.3 -168.5 478 -84.2 493.7 0L0 0Z" fill="#009b89"></path><path d="M0 -370.3C64.7 -360.5 129.3 -350.8 185.1 -320.7C241 -290.6 288 -240.1 317.3 -183.2C346.7 -126.4 358.5 -63.2 370.3 0L0 0Z" fill="#00c474"></path><path d="M0 -246.9C43.1 -240.4 86.2 -233.9 123.4 -213.8C160.6 -193.7 192 -160 211.6 -122.1C231.1 -84.2 239 -42.1 246.9 0L0 0Z" fill="#1deb43"></path><path d="M0 -123.4C21.6 -120.2 43.1 -116.9 61.7 -106.9C80.3 -96.9 96 -80 105.8 -61.1C115.6 -42.1 119.5 -21.1 123.4 0L0 0Z" fill="#7cfc00"></path></g></svg>