<svg id="visual" viewBox="0 0 1920 1280" width="1920" height="1280" xmlns="http://www.w3.org/2000/svg" xmlns:xlink="http://www.w3.org/1999/xlink" version="1.1"><path d="M0 577L106.7 530C213.3 483 426.7 389 640 406C853.3 423 1066.7 551 1280 508.3C1493.3 465.7 1706.7 252.3 1813.3 145.7L1920 39L1920 0L1813.3 0C1706.7 0 1493.3 0 1280 0C1066.7 0 853.3 0 640 0C426.7 0 213.3 0 106.7 0L0 0Z" fill="#6198ff"></path><path d="M0 615L106.7 574.5C213.3 534 426.7 453 640 465.8C853.3 478.7 1066.7 585.3 1280 568.3C1493.3 551.3 1706.7 410.7 1813.3 340.3L1920 270L1920 37L1813.3 143.7C1706.7 250.3 1493.3 463.7 1280 506.3C1066.7 549 853.3 421 640 404C426.7 387 213.3 481 106.7 528L0 575Z" fill="#4988ff"></path><path d="M0 807L106.7 777.2C213.3 747.3 426.7 687.7 640 689.8C853.3 692 1066.7 756 1280 719.8C1493.3 683.7 1706.7 547.3 1813.3 479.2L1920 411L1920 268L1813.3 338.3C1706.7 408.7 1493.3 549.3 1280 566.3C1066.7 583.3 853.3 476.7 640 463.8C426.7 451 213.3 532 106.7 572.5L0 613Z" fill="#2d77ff"></path><path d="M0 871L106.7 843.3C213.3 815.7 426.7 760.3 640 777.5C853.3 794.7 1066.7 884.3 1280 835.3C1493.3 786.3 1706.7 598.7 1813.3 504.8L1920 411L1920 409L1813.3 477.2C1706.7 545.3 1493.3 681.7 1280 717.8C1066.7 754 853.3 690 640 687.8C426.7 685.7 213.3 745.3 106.7 775.2L0 805Z" fill="#0066ff"></path><path d="M0 1012L106.7 1005.7C213.3 999.3 426.7 986.7 640 1003.8C853.3 1021 1066.7 1068 1280 1112.8C1493.3 1157.7 1706.7 1200.3 1813.3 1221.7L1920 1243L1920 409L1813.3 502.8C1706.7 596.7 1493.3 784.3 1280 833.3C1066.7 882.3 853.3 792.7 640 775.5C426.7 758.3 213.3 813.7 106.7 841.3L0 869Z" fill="#005de8"></path><path d="M0 1140L106.7 1120.8C213.3 1101.7 426.7 1063.3 640 1074C853.3 1084.7 1066.7 1144.3 1280 1180.7C1493.3 1217 1706.7 1230 1813.3 1236.5L1920 1243L1920 1241L1813.3 1219.7C1706.7 1198.3 1493.3 1155.7 1280 1110.8C1066.7 1066 853.3 1019 640 1001.8C426.7 984.7 213.3 997.3 106.7 1003.7L0 1010Z" fill="#0055d1"></path><path d="M0 1281L106.7 1281C213.3 1281 426.7 1281 640 1281C853.3 1281 1066.7 1281 1280 1281C1493.3 1281 1706.7 1281 1813.3 1281L1920 1281L1920 1241L1813.3 1234.5C1706.7 1228 1493.3 1215 1280 1178.7C1066.7 1142.3 853.3 1082.7 640 1072C426.7 1061.3 213.3 1099.7 106.7 1118.8L0 1138Z" fill="#004cbb"></path></svg>