<svg id="visual" viewBox="0 0 1920 864" width="1920" height="864" xmlns="http://www.w3.org/2000/svg" xmlns:xlink="http://www.w3.org/1999/xlink" version="1.1"><rect x="0" y="0" width="1920" height="864" fill="#001220"></rect><defs><linearGradient id="grad1_0" x1="55%" y1="0%" x2="100%" y2="100%"><stop offset="5.555555555555554%" stop-color="#7cfc00" stop-opacity="1"></stop><stop offset="94.44444444444446%" stop-color="#7cfc00" stop-opacity="1"></stop></linearGradient></defs><defs><linearGradient id="grad1_1" x1="55%" y1="0%" x2="100%" y2="100%"><stop offset="5.555555555555554%" stop-color="#7cfc00" stop-opacity="1"></stop><stop offset="94.44444444444446%" stop-color="#00d860" stop-opacity="1"></stop></linearGradient></defs><defs><linearGradient id="grad1_2" x1="55%" y1="0%" x2="100%" y2="100%"><stop offset="5.555555555555554%" stop-color="#00b081" stop-opacity="1"></stop><stop offset="94.44444444444446%" stop-color="#00d860" stop-opacity="1"></stop></linearGradient></defs><defs><linearGradient id="grad1_3" x1="55%" y1="0%" x2="100%" y2="100%"><stop offset="5.555555555555554%" stop-color="#00b081" stop-opacity="1"></stop><stop offset="94.44444444444446%" stop-color="#008689" stop-opacity="1"></stop></linearGradient></defs><defs><linearGradient id="grad1_4" x1="55%" y1="0%" x2="100%" y2="100%"><stop offset="5.555555555555554%" stop-color="#005c78" stop-opacity="1"></stop><stop offset="94.44444444444446%" stop-color="#008689" stop-opacity="1"></stop></linearGradient></defs><defs><linearGradient id="grad1_5" x1="55%" y1="0%" x2="100%" y2="100%"><stop offset="5.555555555555554%" stop-color="#005c78" stop-opacity="1"></stop><stop offset="94.44444444444446%" stop-color="#003551" stop-opacity="1"></stop></linearGradient></defs><defs><linearGradient id="grad1_6" x1="55%" y1="0%" x2="100%" y2="100%"><stop offset="5.555555555555554%" stop-color="#001220" stop-opacity="1"></stop><stop offset="94.44444444444446%" stop-color="#003551" stop-opacity="1"></stop></linearGradient></defs><defs><linearGradient id="grad2_0" x1="0%" y1="0%" x2="45%" y2="100%"><stop offset="5.555555555555554%" stop-color="#7cfc00" stop-opacity="1"></stop><stop offset="94.44444444444446%" stop-color="#7cfc00" stop-opacity="1"></stop></linearGradient></defs><defs><linearGradient id="grad2_1" x1="0%" y1="0%" x2="45%" y2="100%"><stop offset="5.555555555555554%" stop-color="#00d860" stop-opacity="1"></stop><stop offset="94.44444444444446%" stop-color="#7cfc00" stop-opacity="1"></stop></linearGradient></defs><defs><linearGradient id="grad2_2" x1="0%" y1="0%" x2="45%" y2="100%"><stop offset="5.555555555555554%" stop-color="#00d860" stop-opacity="1"></stop><stop offset="94.44444444444446%" stop-color="#00b081" stop-opacity="1"></stop></linearGradient></defs><defs><linearGradient id="grad2_3" x1="0%" y1="0%" x2="45%" y2="100%"><stop offset="5.555555555555554%" stop-color="#008689" stop-opacity="1"></stop><stop offset="94.44444444444446%" stop-color="#00b081" stop-opacity="1"></stop></linearGradient></defs><defs><linearGradient id="grad2_4" x1="0%" y1="0%" x2="45%" y2="100%"><stop offset="5.555555555555554%" stop-color="#008689" stop-opacity="1"></stop><stop offset="94.44444444444446%" stop-color="#005c78" stop-opacity="1"></stop></linearGradient></defs><defs><linearGradient id="grad2_5" x1="0%" y1="0%" x2="45%" y2="100%"><stop offset="5.555555555555554%" stop-color="#003551" stop-opacity="1"></stop><stop offset="94.44444444444446%" stop-color="#005c78" stop-opacity="1"></stop></linearGradient></defs><defs><linearGradient id="grad2_6" x1="0%" y1="0%" x2="45%" y2="100%"><stop offset="5.555555555555554%" stop-color="#003551" stop-opacity="1"></stop><stop offset="94.44444444444446%" stop-color="#001220" stop-opacity="1"></stop></linearGradient></defs><g transform="translate(1920, 0)"><path d="M0 864C-177.4 856.6 -354.9 849.2 -432 748.2C-509.1 647.3 -486 452.8 -541.3 312.5C-596.6 172.2 -730.3 86.1 -864 0L0 0Z" fill="#002339"></path><path d="M0 740.6C-152.1 734.2 -304.2 727.9 -370.3 641.4C-436.4 554.8 -416.6 388.1 -463.9 267.9C-511.3 147.6 -626 73.8 -740.6 0L0 0Z" fill="#004866"></path><path d="M0 617.1C-126.7 611.9 -253.5 606.6 -308.6 534.5C-363.7 462.4 -347.1 323.4 -386.6 223.2C-426.1 123 -521.6 61.5 -617.1 0L0 0Z" fill="#007184"></path><path d="M0 493.7C-101.4 489.5 -202.8 485.3 -246.9 427.6C-290.9 369.9 -277.7 258.7 -309.3 178.6C-340.9 98.4 -417.3 49.2 -493.7 0L0 0Z" fill="#009b89"></path><path d="M0 370.3C-76 367.1 -152.1 363.9 -185.1 320.7C-218.2 277.4 -208.3 194.1 -232 133.9C-255.7 73.8 -313 36.9 -370.3 0L0 0Z" fill="#00c474"></path><path d="M0 246.9C-50.7 244.7 -101.4 242.6 -123.4 213.8C-145.5 184.9 -138.9 129.4 -154.6 89.3C-170.4 49.2 -208.7 24.6 -246.9 0L0 0Z" fill="#1deb43"></path><path d="M0 123.4C-25.3 122.4 -50.7 121.3 -61.7 106.9C-72.7 92.5 -69.4 64.7 -77.3 44.6C-85.2 24.6 -104.3 12.3 -123.4 0L0 0Z" fill="#7cfc00"></path></g><g transform="translate(0, 864)"><path d="M0 -864C157.3 -845 314.7 -826 432 -748.2C549.3 -670.5 626.6 -534 692 -399.5C757.3 -265 810.6 -132.5 864 0L0 0Z" fill="#002339"></path><path d="M0 -740.6C134.9 -724.3 269.7 -708 370.3 -641.4C470.8 -574.7 537.1 -457.7 593.1 -342.4C649.1 -227.1 694.8 -113.6 740.6 0L0 0Z" fill="#004866"></path><path d="M0 -617.1C112.4 -603.6 224.8 -590 308.6 -534.5C392.4 -478.9 447.6 -381.4 494.3 -285.4C540.9 -189.3 579 -94.6 617.1 0L0 0Z" fill="#007184"></path><path d="M0 -493.7C89.9 -482.9 179.8 -472 246.9 -427.6C313.9 -383.1 358.1 -305.1 395.4 -228.3C432.7 -151.4 463.2 -75.7 493.7 0L0 0Z" fill="#009b89"></path><path d="M0 -370.3C67.4 -362.1 134.9 -354 185.1 -320.7C235.4 -287.4 268.6 -228.9 296.6 -171.2C324.6 -113.6 347.4 -56.8 370.3 0L0 0Z" fill="#00c474"></path><path d="M0 -246.9C45 -241.4 89.9 -236 123.4 -213.8C156.9 -191.6 179 -152.6 197.7 -114.1C216.4 -75.7 231.6 -37.9 246.9 0L0 0Z" fill="#1deb43"></path><path d="M0 -123.4C22.5 -120.7 45 -118 61.7 -106.9C78.5 -95.8 89.5 -76.3 98.9 -57.1C108.2 -37.9 115.8 -18.9 123.4 0L0 0Z" fill="#7cfc00"></path></g></svg>